<svg version="1.1" xmlns="http://www.w3.org/2000/svg" viewBox="0 0 950.0001 478" width="1900.0002" height="956">
  <!-- svg-source:excalidraw -->
  
  <defs>
    <style class="style-fonts">
      
    </style>
    
  </defs>
  <g transform="translate(142 46) rotate(0 -22 166.5)" stroke="none"><path fill="#f08c00" d="M 2.55,1.87 Q 2.55,1.87 -0.66,6.14 -3.88,10.41 -6.37,14.14 -8.86,17.88 -10.07,21.50 -11.28,25.12 -13.41,29.01 -15.53,32.91 -17.50,37.50 -19.47,42.09 -21.17,47.15 -22.86,52.21 -24.15,57.46 -25.44,62.71 -27.47,68.83 -29.50,74.95 -30.60,78.89 -31.70,82.83 -32.16,87.17 -32.61,91.52 -32.81,97.68 -33.02,103.83 -33.11,109.63 -33.21,115.43 -33.83,124.87 -34.44,134.31 -35.00,142.04 -35.55,149.77 -36.95,156.95 -38.36,164.13 -38.93,172.69 -39.50,181.26 -39.75,187.81 -39.99,194.36 -40.10,200.29 -40.21,206.23 -40.25,212.49 -40.30,218.74 -40.32,223.99 -40.34,229.24 -40.64,234.42 -40.93,239.60 -41.04,243.74 -41.15,247.89 -41.17,251.95 -41.18,256.00 -41.22,262.61 -41.26,269.22 -41.28,273.75 -41.30,278.29 -41.31,282.52 -41.31,286.75 -41.34,291.91 -41.37,297.07 -39.67,299.53 -37.97,301.99 -36.68,304.88 -35.39,307.77 -34.24,309.93 -33.10,312.10 -32.16,314.69 -31.22,317.28 -30.70,319.39 -30.19,321.50 -28.96,324.71 -27.73,327.92 -27.45,329.82 -27.17,331.73 -27.21,332.52 -27.25,333.32 -27.55,334.06 -27.84,334.81 -28.36,335.41 -28.88,336.02 -29.56,336.43 -30.25,336.85 -31.03,337.02 -31.81,337.19 -32.60,337.10 -33.40,337.02 -34.12,336.68 -34.85,336.34 -35.43,335.79 -36.01,335.25 -36.38,334.54 -36.75,333.83 -36.88,333.05 -37.01,332.26 -36.88,331.47 -36.75,330.68 -36.38,329.97 -36.00,329.27 -35.42,328.72 -34.84,328.17 -34.12,327.84 -33.39,327.50 -32.60,327.41 -31.81,327.33 -31.03,327.50 -30.25,327.67 -29.56,328.08 -28.88,328.50 -28.36,329.11 -27.84,329.71 -27.55,330.46 -27.25,331.20 -27.21,332.00 -27.17,332.79 -27.38,333.56 -27.59,334.33 -28.04,334.99 -28.49,335.66 -29.13,336.14 -29.76,336.62 -30.52,336.88 -31.28,337.13 -32.08,337.13 -32.88,337.13 -33.63,336.88 -34.39,336.62 -35.03,336.14 -35.66,335.65 -36.11,334.99 -36.56,334.33 -36.77,333.56 -36.98,332.79 -36.98,332.79 -36.98,332.79 -37.16,330.22 -37.34,327.65 -38.11,323.60 -38.89,319.54 -39.38,317.29 -39.88,315.04 -40.75,312.56 -41.62,310.08 -42.37,307.47 -43.12,304.85 -44.87,301.13 -46.61,297.40 -46.64,292.07 -46.67,286.74 -46.66,282.51 -46.66,278.28 -46.66,273.74 -46.66,269.20 -46.66,262.56 -46.65,255.93 -46.56,251.83 -46.47,247.73 -46.32,243.51 -46.18,239.29 -45.89,234.26 -45.60,229.22 -45.58,223.96 -45.56,218.71 -45.51,212.42 -45.47,206.14 -45.36,200.15 -45.26,194.16 -45.01,187.53 -44.76,180.91 -44.15,172.01 -43.54,163.11 -42.18,156.25 -40.82,149.39 -40.28,141.68 -39.74,133.97 -39.13,124.66 -38.53,115.35 -38.45,109.50 -38.36,103.66 -38.16,97.31 -37.96,90.95 -37.45,86.15 -36.93,81.36 -35.77,77.31 -34.60,73.26 -32.65,67.34 -30.70,61.43 -29.38,55.96 -28.06,50.49 -26.33,45.21 -24.59,39.92 -22.55,35.06 -20.51,30.19 -18.62,26.72 -16.72,23.24 -15.24,18.99 -13.76,14.75 -11.26,10.79 -8.76,6.83 -5.65,2.48 -2.55,-1.87 -2.29,-2.15 -2.03,-2.42 -1.71,-2.63 -1.39,-2.84 -1.03,-2.97 -0.66,-3.09 -0.28,-3.13 0.09,-3.16 0.46,-3.10 0.84,-3.05 1.19,-2.90 1.55,-2.76 1.85,-2.53 2.16,-2.30 2.41,-2.01 2.65,-1.72 2.82,-1.38 2.99,-1.03 3.07,-0.66 3.15,-0.29 3.14,0.09 3.13,0.47 3.02,0.83 2.92,1.20 2.74,1.54 2.55,1.87 2.55,1.87 L 2.55,1.87 Z"></path></g><g transform="translate(152 52) rotate(0 35 44.5)" stroke="none"><path fill="#f08c00" d="M 0,-3.61 Q 0,-3.61 4.31,-3.48 8.63,-3.34 12.73,-2.73 16.84,-2.13 23.22,0.94 29.60,4.01 35.35,9.56 41.09,15.11 43.99,18.28 46.89,21.45 49.38,25.28 51.86,29.10 53.64,31.75 55.41,34.41 56.86,37.74 58.31,41.08 59.95,44.29 61.58,47.51 62.78,50.53 63.99,53.55 65.09,56.12 66.20,58.69 66.86,60.93 67.52,63.16 68.33,65.19 69.13,67.21 70.30,70.64 71.47,74.06 72.95,77.12 74.43,80.18 75.05,84.19 75.66,88.20 75.55,89.11 75.44,90.02 75.04,90.86 74.64,91.69 74.00,92.35 73.36,93.01 72.54,93.43 71.72,93.85 70.81,93.99 69.90,94.12 68.99,93.96 68.08,93.80 67.27,93.36 66.47,92.92 65.84,92.24 65.22,91.56 64.84,90.72 64.46,89.88 64.38,88.96 64.29,88.04 64.50,87.15 64.71,86.25 65.20,85.47 65.68,84.68 66.39,84.10 67.10,83.51 67.96,83.18 68.82,82.85 69.74,82.81 70.66,82.78 71.55,83.03 72.43,83.29 73.19,83.82 73.94,84.35 74.49,85.09 75.04,85.83 75.32,86.71 75.60,87.58 75.59,88.50 75.58,89.43 75.27,90.29 74.97,91.16 74.40,91.89 73.83,92.62 73.06,93.12 72.29,93.63 71.40,93.86 70.51,94.10 69.59,94.04 68.67,93.97 67.82,93.62 66.97,93.27 66.28,92.66 65.58,92.06 65.12,91.26 64.65,90.46 64.47,89.56 64.28,88.66 64.28,88.66 64.28,88.66 63.86,85.09 63.43,81.52 62.59,78.72 61.75,75.93 61.19,72.98 60.63,70.03 59.73,65.74 58.83,61.45 57.94,58.72 57.04,55.98 56.24,53.28 55.45,50.57 53.72,47.08 51.99,43.59 50.94,40.62 49.90,37.64 48.51,34.93 47.12,32.21 44.87,28.81 42.61,25.42 39.77,22.42 36.92,19.42 31.87,14.52 26.81,9.61 21.29,7.02 15.78,4.43 12.20,3.88 8.61,3.34 4.30,3.48 0,3.61 -0.43,3.56 -0.86,3.51 -1.27,3.35 -1.68,3.20 -2.04,2.95 -2.39,2.70 -2.68,2.38 -2.97,2.05 -3.18,1.66 -3.38,1.28 -3.48,0.85 -3.59,0.43 -3.59,-0.00 -3.59,-0.43 -3.48,-0.85 -3.38,-1.28 -3.17,-1.66 -2.97,-2.05 -2.68,-2.38 -2.39,-2.70 -2.03,-2.95 -1.68,-3.20 -1.27,-3.35 -0.86,-3.51 -0.43,-3.56 0.00,-3.61 0.00,-3.61 L 0,-3.61 Z"></path></g><g transform="translate(221 135) rotate(0 62 -2.5)" stroke="none"><path fill="#f08c00" d="M -0.49,-3.55 Q -0.49,-3.55 9.87,-4.85 20.24,-6.16 28.78,-6.69 37.32,-7.22 45.27,-7.41 53.23,-7.61 60.64,-7.67 68.04,-7.73 74.35,-7.74 80.66,-7.75 89.10,-7.74 97.53,-7.73 102.84,-7.72 108.15,-7.71 111.55,-7.87 114.96,-8.03 119.03,-8.36 123.09,-8.70 123.68,-8.60 124.27,-8.51 124.80,-8.22 125.33,-7.94 125.75,-7.51 126.16,-7.07 126.41,-6.53 126.66,-5.99 126.73,-5.39 126.79,-4.80 126.66,-4.21 126.54,-3.63 126.23,-3.11 125.92,-2.60 125.46,-2.21 125.00,-1.82 124.45,-1.60 123.89,-1.38 123.29,-1.35 122.69,-1.31 122.12,-1.47 121.54,-1.63 121.04,-1.97 120.55,-2.30 120.18,-2.78 119.82,-3.26 119.63,-3.83 119.44,-4.39 119.44,-4.99 119.44,-5.59 119.63,-6.16 119.82,-6.73 120.18,-7.21 120.55,-7.68 121.04,-8.02 121.54,-8.36 122.12,-8.52 122.69,-8.68 123.29,-8.64 123.89,-8.61 124.45,-8.39 125.00,-8.17 125.46,-7.78 125.92,-7.39 126.23,-6.88 126.53,-6.37 126.66,-5.78 126.79,-5.20 126.73,-4.60 126.66,-4.00 126.41,-3.46 126.16,-2.92 125.75,-2.48 125.34,-2.05 124.81,-1.77 124.28,-1.48 123.69,-1.39 123.09,-1.29 123.09,-1.29 123.10,-1.29 119.03,-1.62 114.96,-1.95 111.56,-2.10 108.16,-2.25 102.85,-2.22 97.54,-2.20 89.12,-2.15 80.70,-2.10 74.42,-2.02 68.13,-1.94 60.78,-1.78 53.43,-1.62 45.60,-1.29 37.77,-0.96 29.46,-0.27 21.15,0.41 10.82,1.98 0.49,3.55 0.06,3.55 -0.37,3.56 -0.79,3.46 -1.21,3.37 -1.59,3.17 -1.98,2.98 -2.31,2.70 -2.64,2.42 -2.89,2.07 -3.14,1.72 -3.30,1.31 -3.46,0.91 -3.52,0.48 -3.58,0.06 -3.53,-0.36 -3.49,-0.79 -3.34,-1.20 -3.20,-1.61 -2.96,-1.97 -2.72,-2.33 -2.40,-2.62 -2.08,-2.91 -1.70,-3.12 -1.32,-3.32 -0.91,-3.44 -0.49,-3.55 -0.49,-3.55 L -0.49,-3.55 Z"></path></g><g transform="translate(376 49) rotate(0 -14 42)" stroke="none"><path fill="#f08c00" d="M 3.42,2.44 Q 3.42,2.44 0.38,6.34 -2.66,10.25 -3.99,12.72 -5.32,15.20 -6.41,18.25 -7.50,21.31 -8.92,24.60 -10.34,27.89 -12.18,32.76 -14.03,37.64 -14.70,41.02 -15.37,44.40 -15.87,47.38 -16.36,50.37 -17.15,53.51 -17.93,56.65 -18.44,58.86 -18.95,61.07 -20.19,65.06 -21.43,69.04 -21.89,72.48 -22.34,75.91 -22.50,79.73 -22.66,83.55 -22.83,84.39 -23.00,85.24 -23.43,85.98 -23.86,86.73 -24.50,87.29 -25.15,87.86 -25.94,88.20 -26.73,88.53 -27.59,88.59 -28.45,88.65 -29.28,88.44 -30.11,88.23 -30.83,87.76 -31.55,87.29 -32.09,86.61 -32.62,85.94 -32.91,85.13 -33.20,84.32 -33.21,83.46 -33.23,82.60 -32.97,81.78 -32.71,80.96 -32.21,80.27 -31.70,79.57 -31.00,79.08 -30.29,78.58 -29.47,78.34 -28.65,78.09 -27.79,78.12 -26.93,78.15 -26.12,78.46 -25.32,78.76 -24.65,79.30 -23.99,79.85 -23.53,80.58 -23.07,81.30 -22.87,82.14 -22.67,82.98 -22.75,83.83 -22.83,84.69 -23.17,85.48 -23.52,86.26 -24.10,86.90 -24.68,87.53 -25.43,87.95 -26.18,88.37 -27.03,88.52 -27.87,88.68 -28.72,88.55 -29.58,88.43 -30.34,88.04 -31.11,87.65 -31.71,87.04 -32.31,86.43 -32.69,85.65 -33.07,84.88 -33.17,84.03 -33.28,83.17 -33.28,83.17 -33.28,83.17 -32.78,78.68 -32.27,74.18 -31.75,71.30 -31.22,68.41 -30.44,66.29 -29.67,64.17 -28.41,61.40 -27.14,58.62 -26.37,56.57 -25.60,54.51 -24.73,51.68 -23.85,48.85 -23.14,45.90 -22.43,42.95 -21.63,39.14 -20.83,35.32 -19.20,30.03 -17.57,24.74 -16.24,21.69 -14.90,18.65 -13.55,14.92 -12.21,11.19 -10.52,8.52 -8.83,5.84 -6.13,1.70 -3.42,-2.44 -3.08,-2.82 -2.74,-3.19 -2.31,-3.47 -1.89,-3.75 -1.41,-3.93 -0.94,-4.10 -0.43,-4.15 0.06,-4.21 0.57,-4.14 1.07,-4.07 1.54,-3.88 2.01,-3.69 2.42,-3.40 2.84,-3.10 3.17,-2.72 3.50,-2.33 3.73,-1.88 3.96,-1.42 4.07,-0.93 4.18,-0.43 4.17,0.06 4.17,0.57 4.04,1.06 3.91,1.55 3.66,2.00 3.42,2.44 3.42,2.44 L 3.42,2.44 Z"></path></g><g transform="translate(387 47) rotate(0 35 202)" stroke="none"><path fill="#f08c00" d="M 2.39,-2.87 Q 2.39,-2.87 4.23,-1.56 6.06,-0.25 7.70,1.33 9.33,2.91 11.23,5.43 13.12,7.95 14.43,11.53 15.73,15.11 17.13,18.19 18.52,21.27 20.17,25.04 21.82,28.80 23.36,33.17 24.90,37.54 26.88,42.14 28.85,46.75 30.59,51.75 32.32,56.75 34.63,60.91 36.94,65.07 39.17,70.56 41.41,76.05 42.95,79.73 44.48,83.42 46.82,89.33 49.15,95.23 50.71,99.50 52.27,103.77 53.57,107.62 54.87,111.48 56.09,114.78 57.31,118.08 58.15,121.97 58.99,125.86 59.67,129.50 60.35,133.13 60.63,137.12 60.92,141.11 61.49,143.42 62.05,145.73 62.93,150.77 63.81,155.81 64.17,160.45 64.52,165.09 64.83,168.48 65.13,171.88 65.39,177.30 65.65,182.73 66.55,186.82 67.45,190.91 68.00,194.62 68.55,198.34 68.94,202.76 69.34,207.18 70.30,211.15 71.27,215.12 71.72,219.69 72.17,224.26 72.33,229.08 72.50,233.89 72.72,237.36 72.95,240.83 73.03,244.61 73.12,248.40 73.33,250.87 73.55,253.33 73.70,256.11 73.85,258.89 73.98,261.51 74.11,264.12 74.20,266.96 74.28,269.80 74.40,272.16 74.51,274.51 74.60,276.95 74.69,279.39 74.72,282.15 74.76,284.91 74.84,287.24 74.91,289.56 74.97,291.99 75.02,294.42 74.78,296.93 74.54,299.45 73.78,302.41 73.01,305.38 72.73,308.10 72.44,310.83 72.36,313.20 72.28,315.58 72.29,317.72 72.30,319.86 72.40,323.37 72.51,326.87 72.55,331.10 72.60,335.34 72.69,338.93 72.79,342.52 72.88,345.63 72.98,348.75 72.64,351.78 72.30,354.81 71.49,358.53 70.68,362.24 69.30,366.17 67.91,370.09 67.10,372.12 66.29,374.15 65.33,376.86 64.37,379.56 63.33,382.71 62.29,385.85 62.10,388.01 61.92,390.16 61.49,392.87 61.06,395.58 59.85,398.11 58.65,400.65 58.34,402.61 58.03,404.56 57.66,405.64 57.28,406.71 56.59,407.61 55.89,408.51 54.95,409.14 54.00,409.77 52.90,410.07 51.81,410.36 50.67,410.29 49.54,410.22 48.48,409.79 47.43,409.36 46.57,408.62 45.71,407.88 45.13,406.90 44.55,405.92 44.32,404.81 44.08,403.70 44.21,402.57 44.35,401.44 44.83,400.41 45.32,399.38 46.11,398.56 46.89,397.74 47.90,397.22 48.91,396.70 50.04,396.52 51.16,396.35 52.28,396.54 53.40,396.73 54.40,397.27 55.40,397.81 56.17,398.65 56.95,399.48 57.42,400.51 57.89,401.55 58.00,402.68 58.12,403.81 57.86,404.92 57.61,406.03 57.01,407.00 56.42,407.97 55.55,408.69 54.68,409.42 53.62,409.84 52.56,410.25 51.42,410.30 50.29,410.35 49.19,410.04 48.10,409.73 47.16,409.08 46.23,408.43 45.55,407.52 44.87,406.61 44.51,405.53 44.16,404.45 44.17,403.32 44.18,402.18 44.18,402.18 44.18,402.18 45.81,397.82 47.45,393.45 47.91,390.46 48.37,387.47 48.99,384.27 49.61,381.07 50.52,378.48 51.43,375.89 52.60,373.65 53.78,371.42 54.92,368.28 56.06,365.14 57.04,362.39 58.01,359.64 59.03,356.61 60.05,353.58 60.53,351.15 61.01,348.71 61.11,345.61 61.20,342.52 61.30,338.92 61.40,335.33 61.45,331.06 61.51,326.80 61.68,323.20 61.85,319.61 61.97,317.34 62.08,315.06 62.26,312.47 62.43,309.88 62.73,306.33 63.04,302.77 64.00,298.59 64.97,294.40 65.02,291.98 65.08,289.56 65.15,287.24 65.23,284.91 65.27,282.15 65.30,279.39 65.39,276.95 65.48,274.51 65.59,272.16 65.71,269.80 65.79,266.97 65.87,264.13 65.99,261.52 66.12,258.91 66.26,256.14 66.39,253.38 66.58,250.92 66.77,248.46 66.79,244.72 66.80,240.97 66.86,237.55 66.92,234.12 66.71,229.48 66.49,224.85 66.03,220.70 65.57,216.56 64.42,212.20 63.26,207.84 62.71,203.48 62.16,199.12 61.84,195.71 61.53,192.30 60.39,187.74 59.26,183.17 58.78,177.72 58.31,172.26 58.24,168.99 58.17,165.71 57.65,161.44 57.13,157.16 55.95,152.03 54.76,146.90 54.53,144.23 54.30,141.56 54.07,137.90 53.84,134.23 53.30,130.68 52.76,127.13 52.09,123.58 51.42,120.02 50.42,116.64 49.43,113.26 48.24,109.49 47.04,105.73 45.44,101.55 43.85,97.37 41.44,91.51 39.04,85.65 37.55,81.96 36.07,78.26 33.90,73.14 31.73,68.02 29.09,63.47 26.44,58.91 24.64,54.21 22.83,49.51 20.54,44.83 18.25,40.15 16.52,36.20 14.79,32.26 12.79,28.62 10.79,24.98 9.03,21.48 7.26,17.97 6.54,15.53 5.82,13.09 3.33,9.54 0.83,6.00 -0.78,4.43 -2.39,2.87 -2.70,2.54 -3.01,2.21 -3.23,1.82 -3.45,1.43 -3.57,0.99 -3.70,0.56 -3.71,0.11 -3.72,-0.33 -3.63,-0.77 -3.53,-1.22 -3.34,-1.62 -3.14,-2.03 -2.85,-2.37 -2.56,-2.72 -2.20,-2.99 -1.83,-3.26 -1.42,-3.43 -1.00,-3.60 -0.55,-3.67 -0.11,-3.74 0.33,-3.70 0.78,-3.65 1.21,-3.51 1.63,-3.36 2.01,-3.12 2.39,-2.87 2.39,-2.87 L 2.39,-2.87 Z"></path></g><g transform="translate(108 367) rotate(0 4 45)" stroke="none"><path fill="#f08c00" d="M 3.83,0 Q 3.83,0 3.90,3.16 3.97,6.32 4.10,8.81 4.23,11.31 4.10,15.24 3.97,19.18 3.79,29.47 3.61,39.77 4.33,47.12 5.04,54.47 5.60,60.27 6.16,66.08 6.92,70.45 7.69,74.82 8.70,78.00 9.72,81.19 10.36,83.28 10.99,85.38 10.93,87.53 10.87,89.68 10.71,90.28 10.55,90.87 10.20,91.39 9.86,91.90 9.37,92.28 8.88,92.65 8.29,92.85 7.71,93.05 7.09,93.06 6.47,93.06 5.88,92.86 5.29,92.67 4.80,92.30 4.30,91.92 3.95,91.41 3.61,90.90 3.44,90.31 3.27,89.71 3.30,89.09 3.33,88.48 3.56,87.90 3.78,87.32 4.18,86.85 4.58,86.38 5.11,86.06 5.64,85.73 6.24,85.60 6.85,85.46 7.46,85.53 8.08,85.59 8.64,85.85 9.20,86.11 9.65,86.53 10.10,86.95 10.40,87.50 10.69,88.04 10.79,88.65 10.89,89.27 10.80,89.88 10.70,90.49 10.41,91.04 10.12,91.58 9.68,92.01 9.23,92.44 8.67,92.70 8.11,92.96 7.49,93.03 6.88,93.10 6.27,92.97 5.67,92.84 5.14,92.52 4.61,92.21 4.20,91.74 3.80,91.27 3.57,90.69 3.34,90.12 3.30,89.50 3.26,88.88 3.26,88.89 3.26,88.89 3.38,85.91 3.50,82.93 2.64,79.44 1.78,75.95 0.84,71.37 -0.09,66.79 -0.84,61.01 -1.59,55.23 -2.60,47.50 -3.61,39.78 -3.79,29.48 -3.97,19.18 -4.10,15.24 -4.23,11.31 -4.10,8.81 -3.97,6.32 -3.90,3.16 -3.83,0 -3.78,-0.45 -3.72,-0.91 -3.56,-1.35 -3.39,-1.78 -3.13,-2.16 -2.87,-2.54 -2.52,-2.85 -2.17,-3.15 -1.76,-3.37 -1.36,-3.58 -0.91,-3.69 -0.46,-3.80 0.00,-3.80 0.46,-3.80 0.91,-3.69 1.36,-3.58 1.77,-3.37 2.17,-3.15 2.52,-2.85 2.87,-2.54 3.13,-2.16 3.39,-1.78 3.56,-1.35 3.72,-0.91 3.78,-0.45 3.83,0.00 3.83,0.00 L 3.83,0 Z"></path></g><g transform="translate(115 458) rotate(0 178 5)" stroke="none"><path fill="#f08c00" d="M 0,-3.18 Q 0,-3.18 3.44,-3.28 6.89,-3.37 11.24,-3.27 15.58,-3.17 21.39,-2.21 27.20,-1.26 32.89,-0.85 38.57,-0.45 49.78,1.19 60.99,2.83 70.01,4.11 79.03,5.39 89.93,5.93 100.83,6.47 110.65,6.71 120.48,6.95 136.44,7.06 152.39,7.17 164.07,7.22 175.74,7.27 185.30,7.29 194.86,7.31 202.95,7.32 211.04,7.34 217.06,7.34 223.09,7.35 227.66,7.35 232.24,7.35 236.19,7.29 240.15,7.22 243.84,7.12 247.53,7.02 250.83,6.88 254.12,6.74 257.82,6.70 261.52,6.66 265.97,6.75 270.42,6.85 274.90,6.92 279.38,6.99 284.15,7.04 288.93,7.09 294.12,7.13 299.32,7.17 304.11,7.20 308.91,7.22 312.67,7.14 316.43,7.05 319.76,6.91 323.08,6.77 326.51,6.67 329.93,6.58 332.54,6.41 335.14,6.24 337.98,6.12 340.81,6.00 343.16,5.86 345.52,5.72 348.24,5.23 350.96,4.74 351.87,4.01 352.77,3.29 353.48,2.94 354.20,2.60 354.98,2.50 355.76,2.40 356.54,2.56 357.31,2.72 358.00,3.11 358.68,3.51 359.20,4.10 359.73,4.70 360.03,5.43 360.34,6.15 360.39,6.94 360.45,7.73 360.25,8.50 360.05,9.26 359.62,9.92 359.19,10.58 358.56,11.07 357.94,11.56 357.20,11.83 356.45,12.09 355.66,12.11 354.87,12.12 354.12,11.88 353.37,11.64 352.73,11.17 352.09,10.70 351.64,10.06 351.18,9.41 350.96,8.65 350.74,7.89 350.77,7.10 350.79,6.32 351.07,5.58 351.35,4.84 351.86,4.23 352.36,3.62 353.03,3.20 353.70,2.78 354.47,2.59 355.24,2.41 356.02,2.48 356.81,2.56 357.53,2.88 358.26,3.20 358.84,3.73 359.42,4.26 359.80,4.96 360.19,5.65 360.33,6.43 360.47,7.20 360.35,7.99 360.24,8.77 359.88,9.47 359.52,10.18 358.96,10.73 358.39,11.28 358.39,11.28 358.39,11.28 355.69,12.69 352.99,14.10 349.25,14.19 345.52,14.27 343.16,14.13 340.81,13.99 337.98,13.87 335.14,13.75 332.54,13.58 329.93,13.41 326.51,13.32 323.08,13.22 319.76,13.08 316.43,12.94 312.67,12.85 308.91,12.77 304.11,12.79 299.32,12.82 294.12,12.86 288.93,12.90 284.15,12.95 279.38,13.00 274.90,13.07 270.42,13.14 265.97,13.24 261.52,13.33 257.82,13.29 254.12,13.25 250.83,13.11 247.53,12.97 243.84,12.87 240.15,12.76 236.19,12.70 232.23,12.63 227.66,12.63 223.09,12.63 217.06,12.63 211.03,12.63 202.94,12.63 194.85,12.63 185.29,12.61 175.72,12.60 164.04,12.57 152.36,12.54 136.36,12.45 120.36,12.37 110.46,12.15 100.56,11.94 89.42,11.42 78.27,10.90 69.22,9.67 60.18,8.45 49.19,6.90 38.20,5.36 32.24,5.03 26.28,4.71 20.93,3.94 15.57,3.17 11.23,3.27 6.89,3.37 3.44,3.28 0,3.18 -0.38,3.14 -0.76,3.09 -1.12,2.95 -1.48,2.82 -1.79,2.60 -2.11,2.38 -2.36,2.09 -2.62,1.81 -2.80,1.47 -2.97,1.12 -3.07,0.75 -3.16,0.38 -3.16,-0.00 -3.16,-0.38 -3.07,-0.75 -2.97,-1.13 -2.80,-1.47 -2.62,-1.81 -2.36,-2.09 -2.11,-2.38 -1.79,-2.60 -1.48,-2.82 -1.12,-2.95 -0.76,-3.09 -0.38,-3.14 0.00,-3.18 0.00,-3.18 L 0,-3.18 Z"></path></g><g transform="translate(188 186) rotate(0 18 19.5)" stroke="none"><path fill="#f08c00" d="M 4.44,2.77 Q 4.44,2.77 3.00,5.05 1.57,7.33 0.41,10.81 -0.74,14.28 -0.93,16.99 -1.11,19.69 -1.18,22.05 -1.26,24.40 -0.28,26.48 0.68,28.55 3.49,30.22 6.30,31.88 9.80,33.58 13.30,35.28 16.90,36.04 20.49,36.80 23.82,37.09 27.15,37.38 30.57,37.67 33.99,37.95 34.89,35.94 35.79,33.92 36.65,30.86 37.51,27.80 37.68,23.16 37.85,18.51 37.71,15.38 37.58,12.24 36.16,9.77 34.73,7.30 31.78,5.36 28.83,3.42 25.68,3.43 22.54,3.44 19.67,3.67 16.80,3.90 14.73,5.17 12.67,6.45 11.66,6.76 10.65,7.08 9.60,7.06 8.54,7.04 7.55,6.69 6.56,6.33 5.73,5.68 4.90,5.03 4.33,4.14 3.75,3.26 3.49,2.24 3.22,1.21 3.30,0.16 3.38,-0.88 3.78,-1.85 4.19,-2.83 4.89,-3.62 5.59,-4.41 6.50,-4.94 7.42,-5.46 8.45,-5.67 9.49,-5.88 10.53,-5.75 11.58,-5.61 12.53,-5.15 13.48,-4.69 14.23,-3.95 14.98,-3.21 15.46,-2.27 15.94,-1.33 16.09,-0.28 16.24,0.75 16.05,1.79 15.86,2.83 15.35,3.75 14.84,4.67 14.06,5.38 13.28,6.09 12.31,6.52 11.35,6.94 10.29,7.04 9.24,7.13 8.22,6.89 7.19,6.64 6.30,6.08 5.40,5.52 4.74,4.70 4.07,3.89 3.70,2.90 3.32,1.91 3.29,0.86 3.25,-0.19 3.55,-1.20 3.85,-2.21 4.46,-3.07 5.07,-3.93 5.92,-4.56 6.77,-5.18 6.77,-5.18 6.77,-5.18 8.41,-5.98 10.04,-6.78 12.33,-7.76 14.62,-8.75 18.66,-9.07 22.69,-9.40 25.23,-9.28 27.77,-9.16 30.24,-8.61 32.72,-8.06 35.34,-6.53 37.95,-4.99 39.87,-3.62 41.80,-2.25 44.04,0.81 46.29,3.88 47.33,8.11 48.37,12.33 48.15,15.53 47.94,18.74 47.92,22.03 47.90,25.33 47.61,27.57 47.32,29.81 45.57,34.09 43.82,38.37 42.33,40.38 40.85,42.40 37.83,44.05 34.81,45.70 30.66,45.76 26.51,45.82 22.86,45.58 19.20,45.34 14.47,44.85 9.75,44.35 5.85,43.10 1.95,41.85 -2.47,39.78 -6.89,37.71 -8.22,35.84 -9.56,33.97 -10.80,31.26 -12.03,28.56 -12.29,26.35 -12.55,24.15 -12.49,21.46 -12.44,18.78 -12.19,16.57 -11.94,14.36 -10.56,10.47 -9.18,6.58 -8.25,4.22 -7.32,1.86 -5.88,-0.45 -4.44,-2.77 -4.04,-3.26 -3.64,-3.75 -3.14,-4.13 -2.64,-4.52 -2.06,-4.77 -1.48,-5.02 -0.86,-5.12 -0.23,-5.23 0.39,-5.18 1.02,-5.13 1.62,-4.93 2.22,-4.74 2.75,-4.40 3.29,-4.07 3.73,-3.62 4.17,-3.16 4.48,-2.62 4.80,-2.07 4.98,-1.47 5.16,-0.86 5.19,-0.23 5.22,0.39 5.09,1.01 4.97,1.63 4.70,2.20 4.44,2.77 4.44,2.77 L 4.44,2.77 Z"></path></g><g transform="translate(364 184) rotate(0 3 22.5)" stroke="none"><path fill="#f08c00" d="M 4.58,1.96 Q 4.58,1.96 2.58,5.86 0.57,9.76 -0.03,12.54 -0.65,15.33 -0.85,17.86 -1.06,20.39 -1.08,22.61 -1.11,24.82 -0.99,28.62 -0.87,32.43 0.33,34.49 1.54,36.55 4.26,37.62 6.97,38.70 10.73,38.75 14.50,38.80 16.65,38.83 18.80,38.86 21.28,37.98 23.76,37.10 24.37,34.49 24.98,31.88 25.24,29.72 25.49,27.56 21.35,24.94 17.21,22.32 14.00,20.45 10.79,18.59 8.41,17.99 6.03,17.38 2.93,16.02 -0.16,14.66 -3.45,13.86 -6.74,13.05 -9.28,13.06 -11.82,13.08 -14.57,13.16 -17.32,13.25 -19.48,15.06 -21.63,16.87 -22.59,17.27 -23.55,17.67 -24.60,17.75 -25.64,17.82 -26.65,17.56 -27.65,17.30 -28.53,16.73 -29.40,16.16 -30.05,15.34 -30.69,14.52 -31.04,13.54 -31.39,12.56 -31.41,11.51 -31.43,10.47 -31.11,9.48 -30.80,8.48 -30.18,7.64 -29.56,6.80 -28.71,6.20 -27.86,5.60 -26.86,5.30 -25.86,5.01 -24.81,5.05 -23.77,5.08 -22.80,5.45 -21.82,5.82 -21.01,6.48 -20.21,7.15 -19.66,8.03 -19.10,8.91 -18.86,9.93 -18.62,10.94 -18.71,11.98 -18.81,13.02 -19.23,13.98 -19.65,14.93 -20.36,15.70 -21.06,16.47 -21.97,16.97 -22.89,17.48 -23.91,17.66 -24.94,17.85 -25.97,17.70 -27.00,17.55 -27.93,17.07 -28.86,16.60 -29.59,15.86 -30.32,15.11 -30.78,14.17 -31.23,13.23 -31.36,12.20 -31.49,11.16 -31.29,10.14 -31.08,9.12 -30.56,8.22 -30.03,7.31 -29.25,6.63 -28.47,5.94 -28.47,5.94 -28.47,5.94 -26.20,4.56 -23.92,3.18 -19.32,1.98 -14.71,0.78 -12.18,0.94 -9.64,1.10 -7.50,1.40 -5.36,1.71 -3.04,2.55 -0.72,3.39 1.68,4.07 4.09,4.75 6.35,5.71 8.61,6.67 12.09,7.46 15.57,8.25 21.25,10.60 26.93,12.96 29.29,13.98 31.65,15.00 34.66,18.75 37.67,22.49 37.87,25.66 38.06,28.83 37.30,32.61 36.54,36.39 35.76,38.49 34.97,40.59 33.48,43.38 32.00,46.16 29.75,47.85 27.51,49.53 23.11,50.31 18.71,51.08 16.48,51.08 14.24,51.08 10.64,50.87 7.04,50.65 3.61,49.70 0.19,48.75 -3.20,46.45 -6.60,44.16 -8.60,40.33 -10.59,36.50 -10.70,32.60 -10.80,28.70 -10.64,26.49 -10.49,24.28 -10.25,21.84 -10.01,19.39 -9.59,16.37 -9.17,13.35 -8.32,9.84 -7.47,6.33 -6.03,2.18 -4.58,-1.96 -4.28,-2.48 -3.98,-3.00 -3.56,-3.43 -3.14,-3.87 -2.63,-4.19 -2.12,-4.51 -1.55,-4.70 -0.98,-4.88 -0.38,-4.93 0.21,-4.98 0.80,-4.88 1.39,-4.78 1.95,-4.55 2.50,-4.31 2.98,-3.95 3.46,-3.59 3.84,-3.12 4.22,-2.65 4.47,-2.11 4.73,-1.56 4.85,-0.97 4.97,-0.39 4.94,0.21 4.92,0.81 4.75,1.38 4.58,1.96 4.58,1.96 L 4.58,1.96 Z"></path></g><g transform="translate(227 297) rotate(0 58.5 -25)" stroke="none"><path fill="#f08c00" d="M 0,-4.78 Q 0,-4.78 2.01,-4.88 4.02,-4.97 6.87,-4.97 9.72,-4.96 13.30,-6.65 16.88,-8.33 19.35,-9.41 21.83,-10.48 24.19,-11.81 26.55,-13.13 29.10,-14.60 31.64,-16.06 33.17,-17.57 34.69,-19.07 36.95,-21.18 39.20,-23.29 41.59,-25.75 43.97,-28.20 45.43,-30.13 46.88,-32.05 49.13,-35.21 51.38,-38.36 52.42,-41.16 53.46,-43.96 54.74,-46.91 56.01,-49.86 60.27,-51.89 64.52,-53.92 66.61,-52.98 68.69,-52.04 69.88,-47.30 71.07,-42.56 71.94,-39.36 72.81,-36.15 73.39,-33.20 73.98,-30.25 75.72,-26.26 77.46,-22.28 79.12,-19.12 80.77,-15.96 82.66,-14.12 84.55,-12.29 87.81,-11.94 91.06,-11.59 93.82,-11.61 96.58,-11.62 99.45,-11.57 102.31,-11.53 104.36,-13.40 106.40,-15.27 108.57,-16.36 110.73,-17.46 111.86,-17.97 112.98,-18.49 113.99,-18.93 115.00,-19.36 116.10,-19.45 117.20,-19.53 118.26,-19.27 119.33,-19.00 120.25,-18.41 121.18,-17.81 121.87,-16.96 122.55,-16.10 122.93,-15.07 123.31,-14.03 123.33,-12.93 123.36,-11.84 123.04,-10.79 122.71,-9.74 122.07,-8.84 121.43,-7.95 120.53,-7.31 119.64,-6.67 118.59,-6.35 117.54,-6.03 116.44,-6.06 115.34,-6.09 114.31,-6.48 113.28,-6.86 112.42,-7.55 111.57,-8.24 110.98,-9.16 110.39,-10.09 110.12,-11.16 109.86,-12.23 109.95,-13.32 110.04,-14.42 110.48,-15.42 110.92,-16.43 111.65,-17.25 112.39,-18.07 113.34,-18.61 114.30,-19.15 115.38,-19.35 116.46,-19.56 117.55,-19.41 118.64,-19.26 119.62,-18.76 120.61,-18.27 121.38,-17.50 122.16,-16.72 122.64,-15.73 123.13,-14.75 123.28,-13.66 123.42,-12.57 123.21,-11.49 123.01,-10.41 122.46,-9.45 121.92,-8.50 121.10,-7.77 120.28,-7.03 120.28,-7.03 120.28,-7.03 117.08,-5.61 113.87,-4.20 111.46,-2.58 109.05,-0.96 106.11,0.28 103.17,1.52 99.87,1.57 96.57,1.62 93.76,1.59 90.94,1.55 88.15,1.45 85.36,1.35 82.67,0.67 79.98,0.00 77.72,-1.91 75.46,-3.83 73.72,-5.90 71.99,-7.97 70.64,-10.51 69.29,-13.05 68.12,-15.18 66.94,-17.31 65.59,-19.98 64.23,-22.65 63.25,-25.13 62.27,-27.62 61.67,-29.99 61.07,-32.36 60.22,-34.95 59.37,-37.55 60.61,-40.59 61.86,-43.63 64.08,-44.12 66.30,-44.61 65.08,-42.20 63.87,-39.79 62.55,-37.53 61.24,-35.27 59.20,-32.40 57.16,-29.52 55.78,-27.78 54.39,-26.04 52.66,-23.99 50.92,-21.93 48.50,-19.06 46.08,-16.20 43.80,-13.91 41.52,-11.62 39.14,-9.54 36.76,-7.46 34.17,-5.91 31.59,-4.35 26.74,-1.94 21.88,0.46 18.81,2.10 15.74,3.75 12.76,4.36 9.79,4.96 6.90,4.97 4.02,4.97 2.01,4.88 0,4.78 -0.57,4.71 -1.14,4.64 -1.68,4.44 -2.22,4.23 -2.69,3.90 -3.17,3.58 -3.55,3.15 -3.93,2.71 -4.20,2.20 -4.47,1.69 -4.61,1.13 -4.75,0.57 -4.75,-0.00 -4.75,-0.57 -4.61,-1.13 -4.47,-1.69 -4.20,-2.20 -3.93,-2.71 -3.55,-3.15 -3.17,-3.58 -2.69,-3.91 -2.22,-4.23 -1.68,-4.44 -1.14,-4.64 -0.57,-4.71 0.00,-4.78 0.00,-4.78 L 0,-4.78 Z"></path></g><g transform="translate(121 437) rotate(0 -55.5 -53.5)" stroke="none"><path fill="#f08c00" d="M 0.75,5.26 Q 0.75,5.26 -1.25,5.60 -3.25,5.95 -5.89,6.65 -8.53,7.35 -11.87,7.67 -15.20,7.99 -17.33,8.09 -19.46,8.19 -21.77,8.27 -24.08,8.34 -26.87,8.44 -29.66,8.53 -32.83,8.60 -36.00,8.66 -38.21,8.70 -40.42,8.74 -42.75,8.77 -45.07,8.80 -47.67,8.81 -50.26,8.83 -53.32,8.87 -56.39,8.91 -59.10,8.49 -61.81,8.06 -65.31,6.54 -68.80,5.03 -71.55,3.61 -74.30,2.19 -76.52,0.27 -78.75,-1.64 -81.06,-3.79 -83.38,-5.93 -84.89,-7.78 -86.40,-9.64 -87.72,-11.64 -89.03,-13.64 -89.45,-16.90 -89.86,-20.17 -91.06,-22.85 -92.25,-25.53 -92.99,-28.51 -93.73,-31.49 -94.39,-34.05 -95.05,-36.61 -96.48,-40.41 -97.91,-44.22 -98.32,-47.06 -98.73,-49.90 -100.20,-54.69 -101.67,-59.48 -102.15,-62.88 -102.64,-66.28 -102.90,-70.39 -103.17,-74.50 -103.45,-77.14 -103.72,-79.79 -104.03,-83.58 -104.33,-87.37 -104.46,-90.40 -104.59,-93.42 -103.79,-95.74 -102.99,-98.05 -101.23,-100.46 -99.48,-102.86 -97.33,-105.18 -95.19,-107.49 -93.38,-109.41 -91.57,-111.32 -89.33,-113.62 -87.09,-115.91 -84.52,-118.11 -81.95,-120.30 -79.37,-122.04 -76.79,-123.78 -75.12,-125.43 -73.46,-127.08 -72.50,-128.10 -71.54,-129.11 -70.89,-129.61 -70.24,-130.12 -69.48,-130.45 -68.73,-130.78 -67.92,-130.93 -67.11,-131.07 -66.29,-131.02 -65.47,-130.96 -64.68,-130.71 -63.90,-130.46 -63.20,-130.03 -62.50,-129.60 -61.92,-129.02 -61.34,-128.43 -60.92,-127.73 -60.50,-127.02 -60.26,-126.23 -60.02,-125.45 -59.97,-124.62 -59.93,-123.80 -60.08,-122.99 -60.23,-122.18 -60.58,-121.44 -60.92,-120.69 -61.43,-120.04 -61.94,-119.40 -66.29,-119.06 -70.65,-118.72 -72.39,-116.79 -74.13,-114.87 -76.43,-112.55 -78.73,-110.24 -81.08,-107.95 -83.43,-105.67 -85.26,-103.81 -87.10,-101.95 -88.99,-99.90 -90.88,-97.85 -92.42,-95.87 -93.96,-93.89 -95.53,-92.25 -97.09,-90.61 -98.86,-87.89 -100.63,-85.18 -101.82,-82.77 -103.00,-80.36 -103.29,-78.09 -103.57,-75.81 -103.56,-73.29 -103.55,-70.77 -103.55,-68.56 -103.54,-66.34 -103.55,-63.40 -103.57,-60.46 -103.21,-57.89 -102.85,-55.31 -102.70,-52.68 -102.56,-50.05 -102.18,-47.55 -101.81,-45.06 -100.78,-42.63 -99.76,-40.19 -99.27,-37.27 -98.79,-34.34 -98.68,-31.13 -98.57,-27.92 -97.24,-25.69 -95.91,-23.45 -93.69,-20.56 -91.48,-17.66 -90.08,-16.04 -88.69,-14.42 -87.40,-11.32 -86.11,-8.21 -82.57,-7.35 -79.03,-6.48 -76.68,-5.53 -74.33,-4.58 -71.58,-3.88 -68.82,-3.18 -66.31,-2.80 -63.79,-2.42 -61.39,-2.39 -58.99,-2.35 -56.86,-1.91 -54.73,-1.48 -51.28,-1.03 -47.83,-0.59 -45.30,-0.02 -42.77,0.54 -40.32,0.56 -37.88,0.59 -34.33,1.54 -30.79,2.49 -28.49,3.56 -26.19,4.62 -23.65,6.07 -21.11,7.52 -17.80,8.47 -14.50,9.42 -12.37,9.96 -10.23,10.50 -7.76,10.56 -5.29,10.62 -4.11,10.83 -2.94,11.04 -1.89,11.61 -0.84,12.18 -0.04,13.05 0.76,13.93 1.25,15.02 1.74,16.11 1.85,17.29 1.97,18.48 1.70,19.64 1.43,20.80 0.80,21.82 0.17,22.83 -0.74,23.59 -1.66,24.35 -2.77,24.78 -3.88,25.21 -5.07,25.26 -6.27,25.31 -7.41,24.97 -8.56,24.64 -9.53,23.96 -10.51,23.28 -11.22,22.32 -11.93,21.36 -12.30,20.23 -12.66,19.09 -12.65,17.90 -12.63,16.71 -12.24,15.58 -11.85,14.46 -11.11,13.52 -10.38,12.58 -9.38,11.92 -8.39,11.26 -7.23,10.96 -6.08,10.65 -4.89,10.73 -3.70,10.81 -2.60,11.27 -1.50,11.72 -0.60,12.51 0.29,13.29 0.89,14.32 1.49,15.35 1.74,16.52 1.98,17.68 1.83,18.87 1.69,20.05 1.17,21.13 0.66,22.20 -0.16,23.06 -0.99,23.91 -2.05,24.46 -3.11,25.00 -4.29,25.18 -5.47,25.36 -5.47,25.36 -5.47,25.36 -7.18,25.32 -8.90,25.29 -12.03,25.05 -15.16,24.81 -18.09,23.56 -21.02,22.32 -24.17,21.54 -27.32,20.76 -30.22,19.30 -33.12,17.85 -36.44,16.65 -39.76,15.46 -42.12,15.42 -44.48,15.37 -46.70,15.12 -48.92,14.88 -51.23,14.13 -53.54,13.38 -56.54,12.86 -59.54,12.34 -61.98,12.33 -64.43,12.33 -66.65,12.19 -68.88,12.05 -71.46,11.15 -74.04,10.25 -76.49,9.88 -78.93,9.51 -81.29,8.42 -83.66,7.34 -85.88,7.09 -88.10,6.84 -91.27,5.02 -94.44,3.20 -96.81,0.68 -99.18,-1.83 -100.35,-4.47 -101.53,-7.11 -102.85,-8.92 -104.16,-10.74 -105.96,-12.74 -107.75,-14.74 -108.97,-17.09 -110.18,-19.44 -111.81,-23.56 -113.45,-27.69 -113.35,-29.81 -113.25,-31.94 -113.63,-34.98 -114.00,-38.01 -115.17,-40.43 -116.33,-42.85 -116.87,-45.40 -117.40,-47.95 -117.46,-50.60 -117.53,-53.25 -117.98,-56.14 -118.43,-59.04 -118.44,-61.73 -118.44,-64.42 -118.44,-67.09 -118.45,-69.75 -118.42,-72.02 -118.40,-74.30 -118.33,-77.00 -118.25,-79.70 -117.48,-82.44 -116.71,-85.18 -115.62,-87.83 -114.54,-90.48 -113.13,-92.31 -111.71,-94.14 -109.57,-97.50 -107.43,-100.86 -105.80,-102.32 -104.17,-103.78 -101.63,-106.24 -99.10,-108.69 -96.97,-111.38 -94.84,-114.07 -93.00,-115.92 -91.15,-117.77 -89.10,-119.87 -87.04,-121.96 -85.52,-123.45 -84.01,-124.94 -82.41,-126.46 -80.82,-127.97 -78.79,-129.38 -76.76,-130.80 -72.82,-131.24 -68.89,-131.69 -66.58,-131.17 -64.28,-130.64 -67.91,-129.88 -71.54,-129.11 -70.89,-129.61 -70.24,-130.12 -69.48,-130.45 -68.73,-130.78 -67.92,-130.93 -67.11,-131.07 -66.29,-131.02 -65.47,-130.96 -64.68,-130.71 -63.90,-130.46 -63.20,-130.03 -62.50,-129.60 -61.92,-129.02 -61.34,-128.43 -60.92,-127.73 -60.50,-127.02 -60.26,-126.23 -60.02,-125.45 -59.97,-124.62 -59.93,-123.80 -60.08,-122.99 -60.23,-122.19 -60.58,-121.44 -60.92,-120.69 -61.43,-120.04 -61.94,-119.40 -63.00,-118.41 -64.06,-117.42 -66.09,-115.67 -68.12,-113.91 -70.02,-112.74 -71.92,-111.57 -73.96,-110.00 -76.00,-108.43 -78.13,-106.60 -80.26,-104.77 -82.23,-102.88 -84.20,-100.98 -86.51,-98.72 -88.82,-96.46 -91.10,-94.67 -93.37,-92.88 -93.45,-90.26 -93.54,-87.63 -93.56,-84.17 -93.59,-80.70 -93.41,-78.28 -93.23,-75.85 -92.42,-72.09 -91.62,-68.32 -90.93,-65.37 -90.24,-62.43 -89.58,-60.12 -88.92,-57.81 -87.68,-54.70 -86.43,-51.59 -85.66,-48.34 -84.89,-45.09 -83.87,-42.63 -82.84,-40.16 -82.09,-37.85 -81.33,-35.53 -80.18,-32.23 -79.03,-28.93 -77.93,-26.84 -76.83,-24.76 -76.96,-22.21 -77.09,-19.66 -75.59,-17.67 -74.10,-15.68 -72.06,-13.79 -70.02,-11.90 -67.59,-10.17 -65.17,-8.44 -63.01,-7.25 -60.86,-6.07 -58.63,-5.49 -56.39,-4.91 -53.32,-4.87 -50.26,-4.83 -47.67,-4.81 -45.07,-4.80 -42.75,-4.77 -40.42,-4.74 -38.21,-4.70 -36.00,-4.66 -33.50,-4.62 -31.00,-4.59 -28.67,-4.50 -26.33,-4.41 -23.92,-4.34 -21.50,-4.28 -18.42,-4.15 -15.34,-4.03 -12.89,-3.95 -10.45,-3.86 -7.62,-4.33 -4.79,-4.80 -2.77,-5.03 -0.75,-5.26 -0.11,-5.27 0.52,-5.29 1.15,-5.15 1.78,-5.01 2.35,-4.72 2.92,-4.43 3.41,-4.02 3.90,-3.60 4.28,-3.08 4.65,-2.56 4.89,-1.97 5.13,-1.38 5.22,-0.74 5.31,-0.11 5.25,0.52 5.18,1.16 4.97,1.76 4.75,2.37 4.40,2.90 4.05,3.44 3.58,3.87 3.11,4.31 2.55,4.62 1.98,4.93 1.37,5.09 0.75,5.26 0.75,5.26 L 0.75,5.26 Z"></path></g><g transform="translate(940 10) rotate(0 0.00004999999998744897 0.00005000000010113581)" stroke="none"><path fill="#f08c00" d="M 3.14,-3.14 Q 3.14,-3.14 3.55,-2.55 3.97,-1.97 4.18,-1.28 4.40,-0.59 4.38,0.11 4.36,0.83 4.11,1.51 3.86,2.18 3.41,2.74 2.96,3.30 2.36,3.69 1.75,4.08 1.05,4.25 0.36,4.42 -0.35,4.36 -1.07,4.31 -1.73,4.02 -2.39,3.74 -2.92,3.26 -3.46,2.78 -3.81,2.15 -4.16,1.53 -4.30,0.82 -4.43,0.11 -4.34,-0.59 -4.24,-1.30 -3.92,-1.94 -3.60,-2.59 -3.09,-3.09 -2.59,-3.60 -1.94,-3.92 -1.30,-4.24 -0.59,-4.34 0.12,-4.43 0.82,-4.30 1.53,-4.16 2.15,-3.81 2.78,-3.46 3.26,-2.92 3.74,-2.39 4.02,-1.73 4.31,-1.07 4.36,-0.35 4.42,0.36 4.25,1.05 4.07,1.75 3.69,2.36 3.30,2.96 2.74,3.41 2.18,3.86 1.51,4.11 0.83,4.36 0.11,4.38 -0.60,4.40 -1.28,4.18 -1.97,3.97 -2.55,3.55 -3.14,3.13 -3.14,3.14 -3.14,3.14 -3.47,2.71 -3.80,2.29 -4.02,1.80 -4.24,1.32 -4.33,0.79 -4.43,0.26 -4.40,-0.26 -4.36,-0.80 -4.20,-1.31 -4.04,-1.82 -3.77,-2.28 -3.49,-2.73 -3.11,-3.11 -2.73,-3.49 -2.28,-3.77 -1.82,-4.05 -1.31,-4.20 -0.80,-4.36 -0.26,-4.40 0.26,-4.43 0.79,-4.33 1.32,-4.24 1.80,-4.02 2.29,-3.80 2.71,-3.47 3.14,-3.14 3.14,-3.14 L 3.14,-3.14 Z"></path></g></svg>